<?xml version="1.0" encoding="utf-8"?><!-- Uploaded to: SVG Repo, www.svgrepo.com, Generator: SVG Repo Mixer Tools -->
<svg fill="#000000" width="800px" height="800px" viewBox="0 0 24 24" id="money-dollar" data-name="Flat Line" xmlns="http://www.w3.org/2000/svg" class="icon flat-line"><path id="secondary" d="M17,5H7A4,4,0,0,1,3,9v6a4,4,0,0,1,4,4H17a4,4,0,0,1,4-4V9A4,4,0,0,1,17,5Z" style="fill: rgb(44, 169, 188); stroke-width: 2;"></path><path id="primary" d="M14,9H11.5A1.5,1.5,0,0,0,10,10.5h0A1.5,1.5,0,0,0,11.5,12h1A1.5,1.5,0,0,1,14,13.5h0A1.5,1.5,0,0,1,12.5,15H10" style="fill: none; stroke: rgb(0, 0, 0); stroke-linecap: round; stroke-linejoin: round; stroke-width: 2;"></path><path id="primary-2" data-name="primary" d="M21,6a1,1,0,0,0-1-1H17a4,4,0,0,0,4,4h0ZM3,9H3A4,4,0,0,0,7,5H4A1,1,0,0,0,3,6Zm18,6h0a4,4,0,0,0-4,4h3a1,1,0,0,0,1-1ZM3,18a1,1,0,0,0,1,1H7a4,4,0,0,0-4-4H3Zm9-9V8m0,8V15m8,4H4a1,1,0,0,1-1-1V6A1,1,0,0,1,4,5H20a1,1,0,0,1,1,1V18A1,1,0,0,1,20,19Z" style="fill: none; stroke: rgb(0, 0, 0); stroke-linecap: round; stroke-linejoin: round; stroke-width: 2;"></path></svg>